<?xml version="1.0" encoding="utf-8"?>
<!-- Generator: Adobe Illustrator 27.6.1, SVG Export Plug-In . SVG Version: 6.00 Build 0)  -->
<svg version="1.1" id="Layer_1" xmlns="http://www.w3.org/2000/svg" xmlns:xlink="http://www.w3.org/1999/xlink" x="0px" y="0px"
	 viewBox="0 0 536.9 46.4" style="enable-background:new 0 0 536.9 46.4;" xml:space="preserve">
<style type="text/css">
	.st0{fill:#0A0A0A;}
</style>
<g>
	<path class="st0" d="M10.1,43.9l7.1-1.4V3.7h-6.5c-3.2,0-6.2,0.5-7.2,5.2l-2,9.2H0L0.5,0.5h0.7l7.1,0.8h23.4l7.2-0.8h0.6l0.6,17.6
		h-1.5l-2-9.2c-1-4.7-3.9-5.2-7.2-5.2h-6.6v38.8l7.2,1.4v1.5H10v-1.5H10.1z M39.9,31c0-4.9,1.7-9,4.8-11.9c2.6-2.5,6.3-3.9,9.9-3.9
		c4,0,7.2,1,9.5,2.8c2.7,2.2,4.2,5.6,4.2,10.2v0.2H45.4c-0.1,0.6-0.1,1.2-0.1,1.9c0,5.9,4.1,12.1,11.7,12.1c3.6,0,6.8-1.6,10.7-4.8
		l0.1-0.1l1.5,0.5l-0.1,0.2c-6.1,7.5-12.3,8.1-14,8.1C46.4,46.3,39.9,39.9,39.9,31z M55.4,26.5l7-0.9c-0.1-5.4-3-8.4-7.9-8.4
		c-4.6,0-8,3.6-8.8,9.3H55.4z M73.4,39.4c0-4.3,2.8-7,9.4-9.1l8.7-2.7V24c0-3.4-0.3-6.5-4.7-6.5c-2.6,0-4.8,0.7-7,2v7.2h-5.7v-0.2
		c0-6.3,6.5-11.3,14.6-11.3c5.4,0,7.8,2.3,7.8,7.5v17.8c0,1.4,0.6,1.9,1.2,1.9c0.7,0,2.1-0.8,5.5-4.7v-0.1l1.2,0.8l-0.1,0.1
		c-3.7,4.8-6.5,7.5-7.9,7.5c-1.6,0-4.9-2.3-4.9-4.5V40l-9.2,6.1C76.6,46.3,73.4,43.7,73.4,39.4z M91.5,37.6v-7.9l-7.3,2.5
		c-5,1.9-5.7,4.1-5.7,6.1c0,2.3,1.2,3.7,3.4,3.7C84.9,42,88.8,39.6,91.5,37.6z M108.4,38V18.5H104v-2.3h4.5l4-6.5l1-0.2v6.7h10.3
		v2.3h-10.3v19.7c0,2.5,1.3,4,3.6,4c1.9,0,3.2-0.7,5.9-1.9l0.2-0.1l0.7,1.4l-8.4,4.7h-0.1C109.2,46.3,108.4,42.4,108.4,38z
		 M126,44.1l5.2-1.4V20.9h-5.1v-1.4l8.8-4.1h0.8V21h0.6l7.7-5.6c3.2,0,4.5,1.9,4.5,3.9c0,1.9-1.5,3.9-4.3,3.9h-0.1l-3.1-3.3
		l-4.7,3.2v19.6l7.4,1.4v1.4H126V44.1z M150.9,30.5c0-8.8,6.7-15.3,15.9-15.3c4.7,0,8.8,1.6,11.7,4.5c2.6,2.8,4.3,6.7,4.3,10.8
		c0,9-6.8,15.6-16,15.6C156.4,46.1,150.9,38.2,150.9,30.5z M177.1,31.4c0-8.7-4.3-14.1-11.1-14.1c-4.4,0-9.6,3.2-9.6,12.5
		c0,8.7,4.3,14.3,11.1,14.3C171.9,44.1,177.1,40.8,177.1,31.4z M187.4,23.3c0-6.2,2.3-11.8,6.5-15.9c4.4-4.5,10.8-6.9,16.9-6.8
		c5.6,0.7,9.5,2.6,13.5,4.5l0.8,0.4v0.1l1,12.2h-1.5v-0.1c-1.9-9.9-6.4-14.5-13.8-14.5c-4.5,0-8.8,1.9-12.1,5.4
		c-3.3,3.7-5.2,8.7-5.2,14.2c0,10.2,6.5,21.1,18.2,21.1c8.7,0,11.6-7.6,13.2-14.2l0.1-0.1h1.4l-0.8,12.3h-0.1
		c-3.7,1.8-9,3.6-14.7,4.6C199.1,46.4,187.4,38.6,187.4,23.3z M231.2,30.5c0-8.8,6.7-15.3,15.9-15.3c4.7,0,8.8,1.6,11.7,4.5
		c2.7,2.8,4.3,6.7,4.3,10.8c0,9-6.8,15.6-16,15.6C236.7,46.1,231.2,38.2,231.2,30.5z M257.5,31.4c0-8.7-4.3-14.1-11.1-14.1
		c-4.4,0-9.7,3.2-9.7,12.5c0,8.7,4.3,14.3,11.1,14.3C252.2,44.1,257.5,40.8,257.5,31.4z M263.9,44l5.9-1.4V5H264V3.6l9.6-3.4h1.4
		v42.4l5.4,1.4v1.4h-16.5V44z M281.5,30.5c0-8.8,6.8-15.3,16-15.3c4.7,0,8.8,1.6,11.7,4.5c2.7,2.8,4.1,6.7,4.1,10.8
		c0,9-6.7,15.6-15.9,15.6C287,46.1,281.5,38.2,281.5,30.5z M307.8,31.4c0-8.7-4.4-14.1-11.1-14.1c-4.4,0-9.7,3.2-9.7,12.5
		c0,8.7,4.3,14.3,11.1,14.3C302.6,44.1,307.8,40.8,307.8,31.4z M287.4,11.2h0.1l19.8-7.9v5.1l-19.9,4.4V11.2z M315.7,44l5.2-1.4
		V21.1h-5.2v-1.4h0.1l8.8-4.1h0.7v5.5h0.4l6.4-5.3c1.4-0.4,2.6-0.7,4.3-0.7c4.5,0,9.8,2.6,9.8,10.2v17.3l5.2,1.4v1.4h-15.2V44
		l4.9-1.4v-17c0-2.5-0.8-6.4-5.9-6.5c-3.6,0-6.7,2.2-9.3,4.4v19.1l4.9,1.4v1.4h-15.2V44H315.7z"/>
	<path class="st0" d="M352.1,43.7l8-1.6l14.3-37.5L367.7,3l0.6-1.6h24.9l8.7-1l-5.2,13.7h-1.3c0.5-2.3,0.7-4.2,0.7-5.7
		c0-3-1.3-4.3-5.6-4.3h-10.7l-7,18.1h11.4l3.3-5.3l1.2,0.6l-5.4,14h-1.2l1-6.6h-11.3L365.2,42l8.5,1.6l-0.6,1.6h-21.6L352.1,43.7z"
		/>
	<path class="st0" d="M391.3,38.4c0-7.2,7-18.5,14.5-21.5l4-1.6c2.1,0.4,5,1.4,9,2.7l-8.3,21.5c-0.5,1.4-0.1,2.1,0.7,2.1
		c1,0,4.5-2.1,6.5-3.6l0.7,0.7c-4.8,4.9-7.6,7.3-9,7.3c-1.1,0-4.1-1.6-4.1-3.3c0-1,1.9-5.4,2.5-6.6h-0.7l-8.7,10.1
		C392.6,46.3,391.3,42.6,391.3,38.4z M409.3,30l4.1-9.9c-1.7-1.6-4.5-2.1-6.2-2.1c-5.9,2.4-11.4,14.9-11.4,20.5
		c0,2.6,0.5,4.3,1.6,4.3C399.8,42.8,406,34.6,409.3,30z M408.6,10.3l12.8-7.1v5.4l-12.7,2.7L408.6,10.3z"/>
	<path class="st0" d="M421.1,43.9l14.5-39.2h-4.7C432,2,435.8,0,439.2,0c1.4,0,1.9,0.1,2.3,0.1l-8.8,23.7h0.9l10.7-8.6
		c3.6,0,5,2.6,5,6.3c0,9-9.2,24.5-22.3,24.5C423.8,46,421.9,44.5,421.1,43.9z M444.4,22.1c0-1.5-0.8-2.3-1.7-2.3
		c-1.4,0-3.9,2-10.8,7.6l-6.4,16.7C436.7,43.9,444.4,30.2,444.4,22.1z"/>
	<path class="st0" d="M458.4,20.8h-5.1c1.1-2.6,4.9-4.7,8.3-4.7c1,0,1.4,0.1,1.9,0.1l-2.6,8.8h0.8c3.7-5.5,6.1-8.5,7-9.2
		c2.8-0.5,4.4,1,4.7,2.7c0.3,1.9-0.8,4.2-3.4,4.7l-3.4-2.3l-7,9.7l-5.9,14.7H449L458.4,20.8z"/>
	<path class="st0" d="M472.1,41.6l8.1-20.8h-5.1c1.1-2.6,5.2-4.7,8.7-4.7c1.4,0,2,0.1,2.3,0.1c-4.5,12-9,23.4-9.2,24
		c-0.3,0.8,0.1,1.3,0.8,1.3c1.1,0,4.4-2.1,6.4-3.6l0.7,0.7c-4.2,4.9-7,7.3-9,7.3C473.8,46,471.5,43.4,472.1,41.6z M483.3,5
		c0-1.9,1.6-3.6,3.6-3.6s3.6,1.6,3.6,3.6c0,1.9-1.6,3.5-3.6,3.5S483.3,6.9,483.3,5z"/>
	<path class="st0" d="M487.9,37.7c0-8.5,6.1-19.1,15.4-22.5c4.3,0,5.7,2.4,5.7,4.7c0,1.7-0.8,3.4-2,4.1l-5.8-6
		c-4.4,3-8.8,13.6-8.8,20.1c0,2.6,1.1,4.8,3.2,4.8c2.8,0,7.5-3.4,9.9-5.2l0.8,1c-2.3,2-8,7-10.7,7.6
		C490.2,46.3,487.9,42.7,487.9,37.7z"/>
	<path class="st0" d="M509.3,38.4c0-7.2,7-18.5,14.5-21.5l4-1.6c2.1,0.4,5,1.4,9,2.7l-8.3,21.5c-0.5,1.4-0.1,2.1,0.7,2.1
		c1,0,4.5-2.1,6.5-3.6l0.7,0.7c-4.8,4.9-7.6,7.3-9,7.3c-1.1,0-4.1-1.6-4.1-3.3c0-1,1.9-5.4,2.5-6.6h-0.7l-8.7,10.1
		C510.6,46.3,509.3,42.6,509.3,38.4z M527.3,30l4.1-9.9c-1.7-1.6-4.5-2.1-6.2-2.1c-5.9,2.4-11.4,14.9-11.4,20.5
		c0,2.6,0.5,4.3,1.5,4.3C517.8,42.8,524,34.6,527.3,30z"/>
</g>
</svg>
